{"title":"Inglourious Basterds (2009) DVDrip + Optional Nordic+MULTISUBS","uid":5430780,"size":746973406,"categoryP":"video","categoryS":"movies","magnet":"?xt=urn:btih:7f7291b7ae9844dc7970d7e12a85eacc516a0fc7&amp;dn=Inglourious+Basterds+%282009%29+DVDrip+%2B+Optional+Nordic%2BMULTISUBS&amp;tr=udp%3A%2F%2Ftracker.openbittorrent.com%3A80&amp;tr=udp%3A%2F%2Fopen.demonii.com%3A1337&amp;tr=udp%3A%2F%2Ftracker.coppersurfer.tk%3A6969&amp;tr=udp%3A%2F%2Fexodus.desync.com%3A6969","seeders":0,"leechers":1,"uploader":"Kuthumi","files":-1,"time":1268406623,"description":" &lt;a href=&quot;http://www.imdb.com/title/tt0361748/&quot; rel=&quot;nofollow&quot; target=&quot;_NEW&quot;&gt;http://www.imdb.com/title/tt0361748/&lt;/a&gt;\n\nOptional subtitles in separate idx/sub files (Work in Windows Media Player etc., see enclosed Note): \n\nDanish, Finnish, Icelandic, Norwegian, Swedish.\nEnglish for the hearing impaired (everything)\nEnglish for foreign dialogue (only when non-English is spoken)\nPlus Arabic, Hungarian\n\nI could not find a plain old-fashioned DVDrip with Nordic subs for this new Oscar-winner by Tarantino, so I rented the DVD and made one.\n\nMy ripping procedure now produces decent quality for such a long film compressed \ninto just 700 MiB. I enclose a sample for ye weak in faith.\n\nWidescreen DVDrip XviD 2-pass 704x288, great stereo sound AC3.\nRuns well in both my standalone DivX players.\n\nMediaInfo analysis:\nFormat/Info                      : Audio Video Interleave\nFile size                        : 693 MiB\nDuration                         : 2h 26mn\nOveral bit rate                  : 661 Kbps\n\nVideo\nFormat                           : MPEG-4 Visual\nFormat profile                   : Streaming Video@L1\nFormat settings, BVOP            : Yes\nFormat settings, QPel            : No\nFormat settings, GMC             : No warppoints\nFormat settings, Matrix          : Default\nMuxing mode                      : Packet Bitstream\nCodec ID                         : XVID\nCodec ID/Hint                    : XviD\nDuration                         : 2h 26mn\nBit rate                         : 523 Kbps\nWidth                            : 704 pixels\nHeight                           : 288 pixels\nDisplay aspect ratio             : 2.444\nFrame rate                       : 25.000 fps\nResolution                       : 8 bits\nColorimetry                      : 4:2:0\nScan type                        : Progressive\nBits/(Pixel*Frame)               : 0.103\nStream size                      : 549 MiB\nWriting library                  : XviD 1.2.0.dev47 (UTC 2006-11-01)\n\nAudio\nFormat                           : MPEG Audio\nFormat version                   : Version 1\nFormat profile                   : Layer 3\nCodec ID                         : 55\nCodec ID/Hint                    : MP3\nDuration                         : 2h 26mn\nBit rate mode                    : Constant\nBit rate                         : 128 Kbps\nMinimum bit rate                 : 128 Kbps\nChannel(s)                       : 2 channels\nSampling rate                    : 48.0 KHz\nResolution                       : 16 bits\nStream size                      : 134 MiB\nWriting library                  : LAME3.97 \nEncoding settings                : CBR\n\nSource: Nordic PAL rental DVD, 7.6 Giga (note that PAL/NTSC will give no problems for avi files).","torrent":{"xt":"urn:btih:7f7291b7ae9844dc7970d7e12a85eacc516a0fc7","amp;dn":"Inglourious+Basterds+%282009%29+DVDrip+%2B+Optional+Nordic%2BMULTISUBS","amp;tr":["udp%3A%2F%2Ftracker.openbittorrent.com%3A80","udp%3A%2F%2Fopen.demonii.com%3A1337","udp%3A%2F%2Ftracker.coppersurfer.tk%3A6969","udp%3A%2F%2Fexodus.desync.com%3A6969"],"infoHash":"7f7291b7ae9844dc7970d7e12a85eacc516a0fc7","infoHashBuffer":{"type":"Buffer","data":[127,114,145,183,174,152,68,220,121,112,215,225,42,133,234,204,81,106,15,199]},"announce":[],"urlList":[]}}